<?xml version="1.0" encoding="UTF-8"?>
<svg width="99px" height="67px" viewBox="0 0 99 67" version="1.1" xmlns="http://www.w3.org/2000/svg" xmlns:xlink="http://www.w3.org/1999/xlink">
    <!-- Generator: Sketch 63.1 (92452) - https://sketch.com -->
    <title>constanc</title>
    <desc>Created with Sketch.</desc>
    <g id="Page-1" stroke="none" stroke-width="1" fill="none" fill-rule="evenodd">
        <g id="Desktop-HD-Copy-4" transform="translate(-1159.000000, -63.000000)" fill="#BE6E4A" fill-rule="nonzero">
            <g id="Group" transform="translate(833.000000, 0.000000)">
                <path d="M341.43073,89 C344.216625,89 346.403023,88.1702128 347.989924,86.5106383 C348.060453,86.658156 348.11335,86.7687943 348.148615,86.8425532 L348.148615,86.8425532 L348.624685,87.893617 C348.906801,88.5205674 349.188917,88.8340426 349.471033,88.8340426 C349.753149,88.8340426 349.894207,88.6496454 349.894207,88.2808511 L349.894207,88.2808511 L349.894207,87.893617 C349.788413,86.8241135 349.735516,86.012766 349.735516,85.4595745 C349.735516,84.648227 349.806045,83.2468085 349.947103,81.2553191 C349.982368,80.7390071 350,80.4255319 350,80.3148936 C350,79.6141844 349.823678,79.2638298 349.471033,79.2638298 C349.188917,79.2638298 348.959698,79.7432624 348.783375,80.7021277 C348.395466,83.0255319 347.593199,84.841844 346.376574,86.1510638 C345.15995,87.4602837 343.634761,88.1148936 341.801008,88.1148936 C339.403023,88.1148936 337.498741,87.0269504 336.088161,84.8510638 C334.677582,82.6751773 333.972292,79.7248227 333.972292,76 C333.972292,72.2751773 334.607053,69.3248227 335.876574,67.1489362 C337.146096,64.9730496 338.856423,63.8851064 341.007557,63.8851064 C343.581864,63.8851064 345.433249,64.9361702 346.561713,67.0382979 C347.055416,67.9971631 347.478589,69.4723404 347.831234,71.4638298 C347.937028,72.0170213 348.130982,72.293617 348.413098,72.293617 C348.765743,72.293617 348.959698,71.5191489 348.994962,69.9702128 C349.030227,67.4992908 349.153652,65.6368794 349.365239,64.3829787 C349.435768,64.0879433 349.471033,63.9219858 349.471033,63.8851064 C349.471033,63.5900709 349.347607,63.4425532 349.100756,63.4425532 C348.748111,63.4425532 348.448363,63.848227 348.201511,64.6595745 C348.060453,65.1390071 347.901763,65.3787234 347.725441,65.3787234 C347.584383,65.3787234 347.443325,65.3049645 347.302267,65.1574468 C345.503778,63.7191489 343.282116,63 340.63728,63 C337.251889,63 334.465995,64.2078014 332.279597,66.6234043 C330.093199,69.0390071 329,72.1276596 329,75.8893617 C329,79.6510638 330.18136,82.7765957 332.544081,85.2659574 C334.906801,87.7553191 337.869018,89 341.43073,89 Z M365.348993,89 C368.606264,89 371.362416,87.7553191 373.61745,85.2659574 C375.872483,82.7765957 377,79.7432624 377,76.1659574 C377,72.4411348 375.863535,69.3156028 373.590604,66.7893617 C371.317673,64.2631206 368.498881,63 365.134228,63 C361.590604,63 358.682327,64.2078014 356.409396,66.6234043 C354.136465,69.0390071 353,72.1460993 353,75.9446809 C353,79.5957447 354.190157,82.6843972 356.57047,85.2106383 C358.950783,87.7368794 361.876957,89 365.348993,89 Z M365.351351,89 C363.045045,89 361.243243,87.904006 359.945946,85.7120181 C358.648649,83.5200302 358,80.4777022 358,76.585034 C358,73.334845 358.414414,70.6515495 359.243243,68.5351474 C360.432432,65.5117158 362.342342,64 364.972973,64 C366.882883,64 368.378378,64.8125472 369.459459,66.4376417 C371.153153,68.9697657 372,72.4278156 372,76.8117914 C372,84.9372638 369.783784,89 365.351351,89 Z M401.116883,89 C401.417027,89 401.585859,88.8872017 401.623377,88.6616052 C401.660895,88.4360087 401.679654,87.6464208 401.679654,86.2928416 L401.679654,86.2928416 L401.680351,65.3673652 C401.685002,64.6402359 401.712908,64.2083087 401.764069,64.0715835 C401.820346,63.9211858 402.017316,63.845987 402.354978,63.845987 L402.354978,63.845987 L402.974026,63.845987 C403.386724,63.8835864 403.649351,63.9023861 403.761905,63.9023861 C404.587302,63.9023861 405,63.7519884 405,63.4511931 C405,63.2255965 404.831169,63.0939986 404.493506,63.0563991 C404.155844,63.0187997 402.955267,63 400.891775,63 C398.715729,63 397.449495,63.0187997 397.093074,63.0563991 C396.736652,63.0939986 396.558442,63.2067968 396.558442,63.3947939 C396.558442,63.6955893 396.914863,63.845987 397.627706,63.845987 L397.627706,63.845987 L397.965368,63.845987 C398.265512,63.8083876 398.659452,63.7895879 399.147186,63.7895879 C399.672439,63.7895879 399.972583,63.8647867 400.047619,64.0151844 C400.122655,64.1655821 400.160173,64.7107737 400.160173,65.6507592 L400.160173,65.6507592 L400.160173,81.329718 L386.878788,63.0563991 L384.796537,63.0563991 C384.496392,63.0563991 384.15873,63.0751988 383.78355,63.1127983 L383.78355,63.1127983 L383.051948,63.1127983 L379.95671,63.0563991 L379.731602,63.0563991 C379.243867,63.0563991 379,63.1879971 379,63.4511931 C379,63.7895879 379.468975,63.9587852 380.406926,63.9587852 C381.720058,63.9587852 382.601732,64.3347795 383.051948,65.0867679 C383.38961,65.6507592 383.558442,67.3427332 383.558442,70.1626898 L383.558442,70.1626898 L383.558442,85.6724512 C383.558442,86.6124367 383.539683,87.1576283 383.502165,87.308026 C383.464646,87.571222 382.995671,87.7404194 382.095238,87.8156182 L382.095238,87.8156182 L381.363636,87.8720174 L380.857143,87.8720174 C380.1443,87.8720174 379.787879,88.0036153 379.787879,88.2668113 C379.787879,88.5676067 380.088023,88.7180043 380.688312,88.7180043 C381.513709,88.7180043 382.282828,88.6804049 382.995671,88.6052061 C383.370851,88.5676067 383.746032,88.5488069 384.121212,88.5488069 C384.571429,88.5488069 385.077922,88.5676067 385.640693,88.6052061 C386.728716,88.6804049 387.347763,88.7180043 387.497835,88.7180043 C388.323232,88.7180043 388.735931,88.5676067 388.735931,88.2668113 C388.735931,88.0036153 388.510823,87.8720174 388.060606,87.8720174 L388.060606,87.8720174 L387.557136,87.8710851 C386.656393,87.8648704 386.026958,87.8275817 385.668831,87.7592191 C385.274892,87.6840202 385.077922,86.9508315 385.077922,85.5596529 L385.077922,85.5596529 L385.077922,67.7939262 C389.992785,74.637021 393.388167,79.2993492 395.264069,81.7809111 C395.601732,82.2321041 395.808081,82.5140998 395.883117,82.626898 C396.445887,83.3412871 396.858586,83.9052784 397.121212,84.318872 C399.372294,87.439624 400.704185,89 401.116883,89 Z M407.586319,90 C407.899023,90 408.094463,89.8575949 408.172638,89.5727848 C408.250814,89.2879747 408.309446,88.9556962 408.348534,88.5759494 C408.387622,88.1962025 408.52443,88.0063291 408.758958,88.0063291 C408.837134,88.0063291 408.993485,88.0443038 409.228013,88.1202532 C411.338762,89.335443 413.390879,89.943038 415.384365,89.943038 C418.042345,89.943038 420.309446,89.1835443 422.185668,87.664557 C424.061889,86.1455696 425,84.3227848 425,82.1962025 C425,80.6772152 424.472313,79.3575949 423.416938,78.2373418 C422.361564,77.1170886 420.563518,75.9493671 418.022801,74.7341772 C415.7557,73.6708861 414.387622,73.0063291 413.918567,72.7405063 C413.449511,72.4746835 413.019544,72.1139241 412.628664,71.6582278 C411.885993,70.8227848 411.514658,69.7594937 411.514658,68.4683544 C411.514658,65.5443038 412.921824,64.0822785 415.736156,64.0822785 C417.18241,64.0822785 418.442997,64.585443 419.517915,65.5917722 C420.592834,66.5981013 421.306189,67.9367089 421.65798,69.6075949 C421.814332,70.2911392 422.068404,70.6329114 422.420195,70.6329114 C422.732899,70.6329114 422.889251,70.4050633 422.889251,69.9493671 C422.889251,69.7594937 422.869707,69.5886076 422.830619,69.4367089 C422.713355,67.9556962 422.654723,66.9303797 422.654723,66.3607595 C422.654723,65.4113924 422.693811,64.6329114 422.771987,64.0253165 C422.811075,63.7974684 422.830619,63.6455696 422.830619,63.5696203 C422.830619,63.1898734 422.635179,63 422.2443,63 C421.85342,63 421.618893,63.2753165 421.540717,63.8259494 C421.462541,64.3765823 421.286645,64.6518987 421.013029,64.6518987 C420.895765,64.6518987 420.739414,64.5949367 420.543974,64.4810127 C418.863192,63.6075949 417.28013,63.1708861 415.794788,63.1708861 C413.410423,63.1708861 411.436482,63.8449367 409.872964,65.193038 C408.309446,66.5411392 407.527687,68.2594937 407.527687,70.3481013 C407.527687,71.9810127 408.055375,73.3481013 409.110749,74.4493671 C409.931596,75.2848101 411.827362,76.4240506 414.798046,77.8670886 C417.065147,78.9683544 418.589577,79.9556962 419.371336,80.8291139 C420.153094,81.7025316 420.543974,82.8417722 420.543974,84.2468354 C420.543974,87.4367089 418.90228,89.0316456 415.618893,89.0316456 C411.749186,89.0316456 409.442997,86.943038 408.700326,82.7658228 C408.504886,81.5886076 408.211726,81 407.820847,81 C407.429967,81 407.234528,81.3607595 407.234528,82.0822785 C407.234528,82.4240506 407.254072,82.9082278 407.29316,83.5348101 C407.332248,84.1613924 407.351792,84.6455696 407.351792,84.9873418 C407.351792,85.7468354 407.29316,86.6582278 407.175896,87.721519 C407.058632,88.7848101 407,89.3544304 407,89.4303797 C407,89.8101266 407.19544,90 407.586319,90 Z M334.115474,128.999301 C335.150159,128.995571 336.010582,128.976922 336.696742,128.943355 L336.696742,128.943355 L339.453634,128.943355 C340.152047,128.981118 340.666667,129 340.997494,129 L341.383459,129 C342.008354,129 342.320802,128.867829 342.320802,128.603486 C342.320802,128.339143 341.787803,128.18809 340.721805,128.150327 C339.655806,128.112564 339.122807,127.734931 339.122807,127.017429 L339.122807,127.017429 L339.122807,104.246187 C339.894737,104.208424 340.464495,104.189542 340.83208,104.189542 C343.331662,104.189542 344.93066,104.869281 345.629073,106.228758 C346.143693,107.210603 346.45614,108.475672 346.566416,110.023965 C346.603175,110.741467 346.860485,111.100218 347.338346,111.100218 C347.779449,111.100218 348,110.835875 348,110.30719 C348,110.1939 347.981621,109.96732 347.944862,109.627451 L347.944862,109.627451 L347.834586,108.607843 L347.669173,106.228758 L347.503759,104.189542 L347.448622,103 C346.97076,103.151053 346.584795,103.22658 346.290727,103.22658 C343.089669,103.295812 340.877007,103.333313 339.652743,103.339083 L339.343358,103.339869 L326.496241,103.22658 C326.165414,106.436456 326,108.588962 326,109.684096 C326,110.552651 326.165414,110.986928 326.496241,110.986928 C326.863826,110.986928 327.102757,110.552651 327.213033,109.684096 C327.507101,107.305011 328.086048,105.794481 328.949875,105.152505 C329.813701,104.51053 331.679198,104.208424 334.546366,104.246187 L334.546366,104.246187 L334.546366,124.581699 C334.546366,126.167756 334.527987,127.121278 334.491228,127.442266 C334.45447,127.763253 334.289056,127.961511 333.994987,128.037037 C333.847953,128.112564 333.553885,128.150327 333.112782,128.150327 C331.899749,128.18809 331.293233,128.339143 331.293233,128.603486 C331.293233,128.867829 331.660819,129 332.39599,129 L332.39599,129 L334.115474,128.999301 Z M363.099792,129 L364.110187,128.944206 L365.794179,128.888412 C366.91684,128.851216 367.796258,128.832618 368.432432,128.832618 L368.432432,128.832618 L370.004158,128.832618 L373.484407,128.944206 L373.877339,128.944206 C374.62578,128.944206 375,128.832618 375,128.609442 C375,128.311874 374.644491,128.144492 373.933472,128.107296 C372.848233,128.032904 372.24948,127.97711 372.137214,127.939914 C371.725572,127.865522 371.295218,127.251788 370.846154,126.098712 C366.168399,114.456366 363.268191,107.277539 362.14553,104.562232 C361.77131,103.520744 361.528067,103 361.4158,103 C361.191268,103 360.966736,103.27897 360.742204,103.83691 L360.742204,103.83691 L360.349272,104.841202 L359.507277,107.184549 C358.347193,110.271817 357.449064,112.577969 356.81289,114.103004 C356.588358,114.623748 356.438669,115.014306 356.363825,115.274678 C356.288981,115.53505 356.139293,115.925608 355.914761,116.446352 C355.316008,117.896996 354.698545,119.459227 354.06237,121.133047 C352.453222,125.261803 351.536383,127.381974 351.31185,127.493562 C351.12474,127.716738 350.713098,127.88412 350.076923,127.995708 C349.852391,128.032904 349.403326,128.0701 348.72973,128.107296 C348.243243,128.144492 348,128.293276 348,128.553648 C348,128.776824 348.299376,128.888412 348.898129,128.888412 L348.898129,128.888412 L349.010395,128.888412 L349.627859,128.832618 L350.133056,128.776824 L350.638254,128.776824 C351.573805,128.776824 352.649688,128.804721 353.865904,128.860515 C355.082121,128.916309 355.746362,128.944206 355.858628,128.944206 C356.644491,128.944206 357.037422,128.795422 357.037422,128.497854 C357.037422,128.237482 356.81289,128.107296 356.363825,128.107296 L356.363825,128.107296 L355.858628,128.051502 L355.016632,128.051502 L354.286902,127.995708 C353.837838,127.958512 353.613306,127.772532 353.613306,127.437768 C353.613306,126.842632 354.380457,124.629471 355.914761,120.798283 L355.914761,120.798283 L363.941788,120.798283 L364.615385,122.695279 C365.401247,124.889843 365.831601,126.135908 365.906445,126.433476 C366.130977,127.065808 366.243243,127.41917 366.243243,127.493562 C366.243243,127.828326 365.438669,128.014306 363.829522,128.051502 C362.482328,128.088698 361.808732,128.25608 361.808732,128.553648 C361.808732,128.851216 362.14553,129 362.819127,129 L362.819127,129 L363.099792,129 Z M364,120 L357,120 C358.496183,116.105263 359.671756,113.105263 360.526718,111 L360.526718,111 L364,120 Z M396.116883,130 C396.417027,130 396.585859,129.887202 396.623377,129.661605 C396.660895,129.436009 396.679654,128.646421 396.679654,127.292842 L396.679654,127.292842 L396.680351,106.367365 C396.685002,105.640236 396.712908,105.208309 396.764069,105.071584 C396.820346,104.921186 397.017316,104.845987 397.354978,104.845987 L397.354978,104.845987 L397.974026,104.845987 C398.386724,104.883586 398.649351,104.902386 398.761905,104.902386 C399.587302,104.902386 400,104.751988 400,104.451193 C400,104.225597 399.831169,104.093999 399.493506,104.056399 C399.155844,104.0188 397.955267,104 395.891775,104 C393.715729,104 392.449495,104.0188 392.093074,104.056399 C391.736652,104.093999 391.558442,104.206797 391.558442,104.394794 C391.558442,104.695589 391.914863,104.845987 392.627706,104.845987 L392.627706,104.845987 L392.965368,104.845987 C393.265512,104.808388 393.659452,104.789588 394.147186,104.789588 C394.672439,104.789588 394.972583,104.864787 395.047619,105.015184 C395.122655,105.165582 395.160173,105.710774 395.160173,106.650759 L395.160173,106.650759 L395.160173,122.329718 L381.878788,104.056399 L379.796537,104.056399 C379.496392,104.056399 379.15873,104.075199 378.78355,104.112798 L378.78355,104.112798 L378.051948,104.112798 L374.95671,104.056399 L374.731602,104.056399 C374.243867,104.056399 374,104.187997 374,104.451193 C374,104.789588 374.468975,104.958785 375.406926,104.958785 C376.720058,104.958785 377.601732,105.334779 378.051948,106.086768 C378.38961,106.650759 378.558442,108.342733 378.558442,111.16269 L378.558442,111.16269 L378.558442,126.672451 C378.558442,127.612437 378.539683,128.157628 378.502165,128.308026 C378.464646,128.571222 377.995671,128.740419 377.095238,128.815618 L377.095238,128.815618 L376.363636,128.872017 L375.857143,128.872017 C375.1443,128.872017 374.787879,129.003615 374.787879,129.266811 C374.787879,129.567607 375.088023,129.718004 375.688312,129.718004 C376.513709,129.718004 377.282828,129.680405 377.995671,129.605206 C378.370851,129.567607 378.746032,129.548807 379.121212,129.548807 C379.571429,129.548807 380.077922,129.567607 380.640693,129.605206 C381.728716,129.680405 382.347763,129.718004 382.497835,129.718004 C383.323232,129.718004 383.735931,129.567607 383.735931,129.266811 C383.735931,129.003615 383.510823,128.872017 383.060606,128.872017 L383.060606,128.872017 L382.557136,128.871085 C381.656393,128.86487 381.026958,128.827582 380.668831,128.759219 C380.274892,128.68402 380.077922,127.950832 380.077922,126.559653 L380.077922,126.559653 L380.077922,108.793926 C384.992785,115.637021 388.388167,120.299349 390.264069,122.780911 C390.601732,123.232104 390.808081,123.5141 390.883117,123.626898 C391.445887,124.341287 391.858586,124.905278 392.121212,125.318872 C394.372294,128.439624 395.704185,130 396.116883,130 Z M415.43073,130 C418.216625,130 420.403023,129.170213 421.989924,127.510638 C422.060453,127.658156 422.11335,127.768794 422.148615,127.842553 L422.148615,127.842553 L422.624685,128.893617 C422.906801,129.520567 423.188917,129.834043 423.471033,129.834043 C423.753149,129.834043 423.894207,129.649645 423.894207,129.280851 L423.894207,129.280851 L423.894207,128.893617 C423.788413,127.824113 423.735516,127.012766 423.735516,126.459574 C423.735516,125.648227 423.806045,124.246809 423.947103,122.255319 C423.982368,121.739007 424,121.425532 424,121.314894 C424,120.614184 423.823678,120.26383 423.471033,120.26383 C423.188917,120.26383 422.959698,120.743262 422.783375,121.702128 C422.395466,124.025532 421.593199,125.841844 420.376574,127.151064 C419.15995,128.460284 417.634761,129.114894 415.801008,129.114894 C413.403023,129.114894 411.498741,128.02695 410.088161,125.851064 C408.677582,123.675177 407.972292,120.724823 407.972292,117 C407.972292,113.275177 408.607053,110.324823 409.876574,108.148936 C411.146096,105.97305 412.856423,104.885106 415.007557,104.885106 C417.581864,104.885106 419.433249,105.93617 420.561713,108.038298 C421.055416,108.997163 421.478589,110.47234 421.831234,112.46383 C421.937028,113.017021 422.130982,113.293617 422.413098,113.293617 C422.765743,113.293617 422.959698,112.519149 422.994962,110.970213 C423.030227,108.499291 423.153652,106.636879 423.365239,105.382979 C423.435768,105.087943 423.471033,104.921986 423.471033,104.885106 C423.471033,104.590071 423.347607,104.442553 423.100756,104.442553 C422.748111,104.442553 422.448363,104.848227 422.201511,105.659574 C422.060453,106.139007 421.901763,106.378723 421.725441,106.378723 C421.584383,106.378723 421.443325,106.304965 421.302267,106.157447 C419.503778,104.719149 417.282116,104 414.63728,104 C411.251889,104 408.465995,105.207801 406.279597,107.623404 C404.093199,110.039007 403,113.12766 403,116.889362 C403,120.651064 404.18136,123.776596 406.544081,126.265957 C408.906801,128.755319 411.869018,130 415.43073,130 Z" id="constanc"></path>
            </g>
        </g>
    </g>
</svg>